SplineFontDB: 3.2
FontName: EdgeTX_extra
FullName: EdgeTX_extra
FamilyName: EdgeTX_extra
Weight: Regular
Copyright: Copyright (c) 2022, gagarin
UComments: "2022-2-5: Created with FontForge (http://fontforge.org)"
Version: 001.000
ItalicAngle: 0
UnderlinePosition: -30
UnderlineWidth: 0
Ascent: 422
Descent: 90
InvalidEm: 0
LayerCount: 2
Layer: 0 0 "Hinten" 1
Layer: 1 0 "Vorne" 0
XUID: [1021 779 755253580 15286]
StyleMap: 0x0000
FSType: 0
OS2Version: 0
OS2_WeightWidthSlopeOnly: 0
OS2_UseTypoMetrics: 1
CreationTime: 1644084515
ModificationTime: 1644177207
OS2TypoAscent: 0
OS2TypoAOffset: 1
OS2TypoDescent: 0
OS2TypoDOffset: 1
OS2TypoLinegap: 46
OS2WinAscent: 0
OS2WinAOffset: 1
OS2WinDescent: 0
OS2WinDOffset: 1
HheadAscent: 0
HheadAOffset: 1
HheadDescent: 0
HheadDOffset: 1
MarkAttachClasses: 1
DEI: 91125
Encoding: ISO8859-1
UnicodeInterp: none
NameList: AGL For New Fonts
DisplaySize: -48
AntiAlias: 1
FitToEm: 0
WinInfo: 0 34 16
BeginPrivate: 0
EndPrivate
BeginChars: 256 23

StartChar: uni0080
Encoding: 128 128 2
Width: 512
VWidth: 511
Flags: HW
LayerCount: 2
Fore
SplineSet
41 237 m 5
 41 207 l 5
 184 207 327 207 470 207 c 5
 429 251 388 294 347 338 c 5
 325 317 l 5
 400 237 l 5
 41 237 l 5
321 123 m 5
 345 104 l 6
 437 207 l 5
 402 207 l 6
 321 123 l 5
EndSplineSet
Validated: 5
EndChar

StartChar: uni0081
Encoding: 129 129 3
Width: 512
VWidth: 511
Flags: HW
LayerCount: 2
Fore
SplineSet
459 198 m 1
 460 228 l 1
 116 237 l 1
 176 304 l 1
 153 324 l 1
 119 285 84 248 50 209 c 1
 186 205 323 202 459 198 c 1
92 208 m 1
 50 209 l 1
 146 108 l 1
 169 127 l 1
 92 208 l 1
EndSplineSet
Validated: 5
EndChar

StartChar: uni0082
Encoding: 130 130 4
Width: 512
VWidth: 511
Flags: HW
LayerCount: 2
Fore
SplineSet
244 -10 m 5
 274 -10 l 5
 280 354 l 5
 350 288 l 5
 371 310 l 5
 331 347 291 385 251 422 c 5
 249 278 246 134 244 -10 c 5
275 373 m 5
 255 395 l 5
 150 300 l 5
 170 278 l 5
 275 373 l 5
EndSplineSet
Validated: 5
EndChar

StartChar: uni0083
Encoding: 131 131 5
Width: 512
VWidth: 511
Flags: HW
LayerCount: 2
Fore
SplineSet
280 406 m 5
 250 407 l 5
 249 276 248 144 247 13 c 5
 281 38 315 64 349 89 c 5
 331 113 l 5
 277 73 l 5
 280 406 l 5
248 22 m 5
 269 44 l 5
 191 118 l 5
 170 97 l 5
 248 22 l 5
EndSplineSet
Validated: 5
EndChar

StartChar: uni0084
Encoding: 132 132 6
Width: 512
VWidth: 511
Flags: HW
LayerCount: 2
Fore
SplineSet
341 221 m 5
 371 221 l 5
 371 273 371 324 371 376 c 5
 272 276 173 175 74 75 c 5
 95 54 l 5
 341 303 l 5
 341 221 l 5
350 321 m 5
 349 351 l 5
 210 348 l 5
 211 318 l 5
 350 321 l 5
EndSplineSet
Validated: 5
EndChar

StartChar: uni0085
Encoding: 133 133 7
Width: 512
VWidth: 511
Flags: HW
LayerCount: 2
Fore
SplineSet
406 212 m 5
 376 214 l 5
 371 125 l 5
 126 367 l 5
 105 345 l 5
 202 249 300 153 397 57 c 5
 400 109 403 160 406 212 c 5
384 86 m 5
 384 116 l 5
 248 116 l 5
 248 86 l 5
 384 86 l 5
EndSplineSet
Validated: 5
EndChar

StartChar: uni0086
Encoding: 134 134 8
Width: 512
VWidth: 511
Flags: HW
LayerCount: 2
Fore
SplineSet
100 76 m 5
 152 76 204 76 256 76 c 5
 256 106 l 5
 174 106 l 5
 429 355 l 5
 408 377 l 5
 305 277 203 176 100 76 c 5
125 97 m 5
 155 98 l 5
 149 214 l 5
 119 212 l 5
 125 97 l 5
EndSplineSet
Validated: 5
EndChar

StartChar: uni0087
Encoding: 135 135 9
Width: 512
VWidth: 511
Flags: HW
LayerCount: 2
Fore
SplineSet
256 321 m 5
 256 352 l 5
 201 352 145 352 90 352 c 5
 193 251 295 148 398 47 c 5
 419 69 l 5
 163 321 l 5
 256 321 l 5
142 340 m 5
 112 339 l 5
 115 210 l 5
 145 211 l 5
 142 340 l 5
EndSplineSet
Validated: 5
EndChar

StartChar: uni0088
Encoding: 136 136 10
Width: 512
VWidth: 511
Flags: HW
LayerCount: 2
Fore
SplineSet
89 32 m 1
 259 370 l 1
 432 33 l 1
 89 32 l 1
258 423 m 1
 244 408 l 1
 176 273 108 137 40 2 c 1
 179 2 318 3 457 3 c 2
 482 3 l 1
 412 139 341 275 271 411 c 1
 258 423 l 1
EndSplineSet
Validated: 9
EndChar

StartChar: uni008A
Encoding: 138 138 11
Width: 512
VWidth: 511
Flags: HW
LayerCount: 2
Fore
SplineSet
371.424804688 322.3515625 m 2
 352.231445312 339.641601562 l 2
 349.965820312 341.682617188 346.469726562 341.500976562 344.428710938 339.235351562 c 2
 320.098632812 312.237304688 l 2
 318.057617188 309.971679688 318.239257812 306.475585938 320.504882812 304.435546875 c 2
 339.698242188 287.14453125 l 2
 341.963867188 285.103515625 345.4609375 285.28515625 347.501953125 287.55078125 c 2
 371.831054688 314.548828125 l 2
 373.872070312 316.814453125 373.690429688 320.310546875 371.424804688 322.3515625 c 2
324.213867188 308.54296875 m 1025
402.403320312 274.20703125 m 2
 390.680664062 297.2265625 l 2
 389.296875 299.944335938 385.966796875 301.02734375 383.25 299.643554688 c 2
 350.879882812 283.168945312 l 2
 348.162109375 281.78515625 347.079101562 278.45703125 348.462890625 275.739257812 c 2
 360.185546875 252.719726562 l 2
 361.569335938 250.001953125 364.899414062 248.918945312 367.6171875 250.302734375 c 2
 399.987304688 266.77734375 l 2
 402.704101562 268.161132812 403.787109375 271.489257812 402.403320312 274.20703125 c 2
405.318359375 248.765625 m 2
 369.193359375 244.984375 l 2
 366.161132812 244.666992188 363.95703125 241.946289062 364.275390625 238.9140625 c 2
 366.96875 213.221679688 l 2
 367.287109375 210.189453125 370.0078125 207.985351562 373.040039062 208.302734375 c 2
 409.185546875 212.0859375 l 2
 412.21875 212.403320312 414.422851562 215.123046875 414.104492188 218.15625 c 2
 411.41015625 243.852539062 l 2
 411.08984375 246.8828125 408.349609375 249.083007812 405.318359375 248.765625 c 2
404.915039062 161.665039062 m 2
 411.602539062 186.594726562 l 2
 412.392578125 189.540039062 410.643554688 192.573242188 407.698242188 193.36328125 c 2
 372.596679688 202.782226562 l 2
 369.651367188 203.572265625 366.619140625 201.822265625 365.829101562 198.877929688 c 2
 359.140625 173.947265625 l 2
 358.350585938 171.002929688 360.100585938 167.969726562 363.045898438 167.1796875 c 2
 398.147460938 157.760742188 l 2
 401.091796875 156.970703125 404.125 158.719726562 404.915039062 161.665039062 c 2
376.087890625 112.193359375 m 2
 391.280273438 133.086914062 l 2
 393.073242188 135.552734375 392.526367188 139.010742188 390.060546875 140.803710938 c 2
 360.6640625 162.173828125 l 2
 358.197265625 163.966796875 354.739257812 163.419921875 352.946289062 160.954101562 c 2
 337.75390625 140.060546875 l 2
 335.959960938 137.594726562 336.506835938 134.13671875 338.973632812 132.34375 c 2
 368.369140625 110.973632812 l 2
 370.8359375 109.180664062 374.293945312 109.7265625 376.087890625 112.193359375 c 2
331.451171875 76.35546875 m 2
 353.104492188 90.404296875 l 2
 355.662109375 92.0634765625 356.391601562 95.4873046875 354.731445312 98.044921875 c 2
 334.944335938 128.529296875 l 2
 333.284179688 131.086914062 329.859375 131.81640625 327.301757812 130.15625 c 2
 305.6484375 116.108398438 l 2
 303.08984375 114.448242188 302.361328125 111.024414062 304.021484375 108.466796875 c 2
 323.80859375 77.982421875 l 2
 325.46875 75.4248046875 328.892578125 74.6962890625 331.451171875 76.35546875 c 2
276.923828125 58.89453125 m 2
 302.172851562 64.25 l 2
 305.15625 64.8828125 307.063476562 67.8173828125 306.430664062 70.80078125 c 2
 298.88671875 106.330078125 l 2
 298.25390625 109.3125 295.317382812 111.220703125 292.334960938 110.587890625 c 2
 267.084960938 105.232421875 l 2
 264.102539062 104.599609375 262.194335938 101.665039062 262.828125 98.681640625 c 2
 270.37109375 63.15234375 l 2
 271.004882812 60.169921875 273.940429688 58.26171875 276.923828125 58.89453125 c 2
219.744140625 62.123046875 m 2
 245.2578125 58.0712890625 l 2
 248.268554688 57.59375 251.1015625 59.650390625 251.580078125 62.662109375 c 2
 257.275390625 98.5556640625 l 2
 257.752929688 101.567382812 255.696289062 104.401367188 252.684570312 104.87890625 c 2
 227.171875 108.9296875 l 2
 224.16015625 109.408203125 221.327148438 107.3515625 220.848632812 104.33984375 c 2
 215.153320312 68.4453125 l 2
 214.67578125 65.43359375 216.732421875 62.6005859375 219.744140625 62.123046875 c 2
167.529296875 85.6181640625 m 2
 189.897460938 72.6943359375 l 2
 192.538085938 71.1689453125 195.919921875 72.07421875 197.4453125 74.71484375 c 2
 215.62890625 106.181640625 l 2
 217.154296875 108.822265625 216.249023438 112.204101562 213.609375 113.729492188 c 2
 191.241210938 126.65234375 l 2
 188.600585938 128.177734375 185.21875 127.272460938 183.692382812 124.6328125 c 2
 165.509765625 93.1650390625 l 2
 163.984375 90.525390625 164.888671875 87.1435546875 167.529296875 85.6181640625 c 2
127.213867188 126.278320312 m 2
 143.452148438 106.215820312 l 2
 145.37109375 103.845703125 148.852539062 103.478515625 151.223632812 105.396484375 c 2
 179.4609375 128.2421875 l 2
 181.831054688 130.16015625 182.198242188 133.641601562 180.279296875 136.01171875 c 2
 164.041015625 156.07421875 l 2
 162.122070312 158.444335938 158.640625 158.811523438 156.26953125 156.893554688 c 2
 128.033203125 134.047851562 l 2
 125.662109375 132.129882812 125.294921875 128.6484375 127.213867188 126.278320312 c 2
104.127929688 178.666992188 m 2
 112.098632812 154.1171875 l 2
 113.040039062 151.216796875 116.16015625 149.625976562 119.060546875 150.56640625 c 2
 153.629882812 161.782226562 l 2
 156.530273438 162.723632812 158.120117188 165.841796875 157.178710938 168.7421875 c 2
 149.208007812 193.291992188 l 2
 148.266601562 196.192382812 145.147460938 197.783203125 142.247070312 196.841796875 c 2
 107.677734375 185.625976562 l 2
 104.77734375 184.685546875 103.186523438 181.56640625 104.127929688 178.666992188 c 2
101.359375 235.862304688 m 2
 100.000976562 210.065429688 l 2
 99.8408203125 207.020507812 102.182617188 204.41796875 105.227539062 204.256835938 c 2
 141.51953125 202.33984375 l 2
 144.564453125 202.1796875 147.166992188 204.520507812 147.328125 207.56640625 c 2
 148.686523438 233.36328125 l 2
 148.846679688 236.408203125 146.504882812 239.010742188 143.459960938 239.171875 c 2
 107.166992188 241.087890625 l 2
 104.122070312 241.249023438 101.51953125 238.907226562 101.359375 235.862304688 c 2
119.271484375 290.23046875 m 2
 108.755859375 266.634765625 l 2
 107.514648438 263.849609375 108.768554688 260.580078125 111.553710938 259.338867188 c 2
 144.752929688 244.544921875 l 2
 147.537109375 243.306640625 150.813476562 244.579101562 152.053710938 247.36328125 c 2
 162.560546875 270.940429688 l 2
 163.801757812 273.725585938 162.547851562 276.994140625 159.762695312 278.235351562 c 2
 126.56640625 293.028320312 l 2
 123.78125 294.26953125 120.512695312 293.015625 119.271484375 290.23046875 c 2
155.487304688 334.560546875 m 2
 137.228515625 316.31640625 l 2
 135.071289062 314.161132812 135.0703125 310.66015625 137.225585938 308.50390625 c 2
 162.91796875 282.798828125 l 2
 165.07421875 280.641601562 168.575195312 280.640625 170.732421875 282.795898438 c 2
 188.991210938 301.040039062 l 2
 191.1484375 303.1953125 191.149414062 306.696289062 188.994140625 308.852539062 c 2
 163.301757812 334.557617188 l 2
 161.146484375 336.713867188 157.64453125 336.71484375 155.487304688 334.560546875 c 2
256.88671875 299.463867188 m 1025
325.341796875 362.009765625 m 1
 180.236328125 362.009765625 l 1
 258.233398438 261.74609375 l 1
 325.341796875 362.009765625 l 1
257.5625 280.598632812 m 1025
EndSplineSet
EndChar

StartChar: uni008B
Encoding: 139 139 12
Width: 512
VWidth: 511
Flags: HW
LayerCount: 2
Fore
SplineSet
143.9296875 200.590820312 m 0
 143.9296875 270.810546875 200.844726562 327.724609375 271.063476562 327.724609375 c 0
 341.283203125 327.724609375 398.197265625 270.810546875 398.197265625 200.590820312 c 0
 398.197265625 130.372070312 341.283203125 73.45703125 271.063476562 73.45703125 c 0
 200.844726562 73.45703125 143.9296875 130.372070312 143.9296875 200.590820312 c 0
121.831054688 200.590820312 m 0
 121.831054688 118.180664062 188.653320312 51.357421875 271.063476562 51.357421875 c 0
 353.474609375 51.357421875 420.296875 118.180664062 420.296875 200.590820312 c 0
 420.296875 283.001953125 353.474609375 349.82421875 271.063476562 349.82421875 c 0
 188.653320312 349.82421875 121.831054688 283.001953125 121.831054688 200.590820312 c 0
136.672851562 292.740234375 m 1025
223.916992188 194.626953125 m 2
 279.594726562 253.2421875 l 2
 283.794921875 257.663085938 283.615234375 264.663085938 279.193359375 268.86328125 c 2
 184.338867188 358.96484375 l 2
 179.91796875 363.165039062 172.91796875 362.985351562 168.717773438 358.563476562 c 2
 113.040039062 299.94921875 l 2
 108.83984375 295.52734375 109.01953125 288.52734375 113.44140625 284.327148438 c 2
 208.294921875 194.225585938 l 2
 212.716796875 190.025390625 219.716796875 190.205078125 223.916992188 194.626953125 c 2
EndSplineSet
EndChar

StartChar: uni008C
Encoding: 140 140 13
Width: 512
VWidth: 511
Flags: HW
LayerCount: 2
Fore
SplineSet
152.090820312 156.846679688 m 0
 152.090820312 205.612304688 191.612304688 245.133789062 240.377929688 245.133789062 c 0
 289.142578125 245.133789062 328.6640625 205.612304688 328.6640625 156.846679688 c 0
 328.6640625 108.08203125 289.142578125 68.560546875 240.377929688 68.560546875 c 0
 191.612304688 68.560546875 152.090820312 108.08203125 152.090820312 156.846679688 c 0
129.991210938 156.846679688 m 0
 129.991210938 95.890625 179.420898438 46.4609375 240.377929688 46.4609375 c 0
 301.333984375 46.4609375 350.763671875 95.890625 350.763671875 156.846679688 c 0
 350.763671875 217.803710938 301.333984375 267.233398438 240.377929688 267.233398438 c 0
 179.420898438 267.233398438 129.991210938 217.803710938 129.991210938 156.846679688 c 0
248.07421875 143.723632812 m 1
 268.723632812 135.840820312 l 1
 301.16796875 220.833984375 l 2
 323.612304688 238.34375 346.057617188 255.853515625 368.502929688 273.364257812 c 2
 417.029296875 400.560546875 l 1
 356.407226562 401.040039062 295.930664062 401.938476562 235.208007812 401.938476562 c 1
 219.966796875 362.134765625 204.7890625 322.260742188 189.591796875 282.423828125 c 0
 203.842773438 258.288085938 218.09375 234.153320312 232.344726562 210.017578125 c 2
 201.716796875 129.737304688 l 1
 222.3671875 121.858398438 l 1
 233.841796875 151.93359375 245.31640625 182.0078125 256.790039062 212.083007812 c 0
 242.5390625 236.21875 228.288085938 260.353515625 214.037109375 284.489257812 c 2
 250.387695312 379.778320312 l 1
 385.037109375 378.713867188 l 1
 350.04296875 286.98828125 l 2
 327.598632812 269.478515625 305.154296875 251.96875 282.709960938 234.458984375 c 0
 271.165039062 204.213867188 259.619140625 173.96875 248.07421875 143.723632812 c 1
359.264648438 280.170898438 m 1025
212.051757812 125.813476562 m 1025
EndSplineSet
EndChar

StartChar: uni008D
Encoding: 141 141 14
Width: 512
VWidth: 511
Flags: HW
LayerCount: 2
Fore
SplineSet
294.7734375 -67.9072265625 m 5
 219.755859375 -67.9072265625 l 5
 219.755859375 399.892578125 l 1
 294.7734375 399.892578125 l 1
 294.7734375 -67.9072265625 l 5
208.70703125 -90.0068359375 m 2
 305.823242188 -90.0068359375 l 2
 311.921875 -90.0068359375 316.873046875 -85.0556640625 316.873046875 -78.95703125 c 2
 316.873046875 410.942382812 l 2
 316.873046875 417.041015625 311.921875 421.9921875 305.823242188 421.9921875 c 2
 208.70703125 421.9921875 l 2
 202.608398438 421.9921875 197.657226562 417.041015625 197.657226562 410.942382812 c 2
 197.657226562 -78.95703125 l 2
 197.657226562 -85.0556640625 202.608398438 -90.0068359375 208.70703125 -90.0068359375 c 2
133.677734375 70.806640625 m 1
 132.173828125 292.486328125 l 1
 371.587890625 294.7890625 l 1
 373.091796875 73.1298828125 l 1
 293.287109375 72.3623046875 213.482421875 71.57421875 133.677734375 70.806640625 c 1
110.000976562 303.323242188 m 2
 111.654296875 59.5439453125 l 2
 111.6953125 53.4453125 116.681640625 48.5419921875 122.779296875 48.6005859375 c 2
 384.291992188 51.1162109375 l 2
 390.389648438 51.17578125 395.306640625 56.1953125 395.264648438 62.2939453125 c 2
 393.611328125 306.05078125 l 2
 393.569335938 312.149414062 388.584960938 317.052734375 382.487304688 316.994140625 c 2
 120.974609375 314.478515625 l 2
 114.876953125 314.419921875 109.958984375 309.420898438 110.000976562 303.323242188 c 2
183.111328125 238.07421875 m 1
 183.111328125 215.975585938 l 1
 323.498046875 215.975585938 l 1
 323.498046875 238.07421875 l 1
 183.111328125 238.07421875 l 1
183.111328125 151.080078125 m 1
 183.111328125 128.98046875 l 1
 323.498046875 128.98046875 l 1
 323.498046875 151.080078125 l 1
 183.111328125 151.080078125 l 1
EndSplineSet
EndChar

StartChar: uni008E
Encoding: 142 142 15
Width: 512
VWidth: 511
Flags: HW
LayerCount: 2
Fore
SplineSet
357.936523438 309.674804688 m 0
 373.2578125 303.609375 388.158203125 315.583007812 388.158203125 330.231445312 c 0
 388.158203125 339.561523438 382.364257812 347.548828125 374.181640625 350.788085938 c 0
 355.858398438 358.041992188 335.793945312 362 314.954101562 362 c 0
 226.306640625 362 154.733398438 289.482421875 154.733398438 201.087890625 c 0
 154.733398438 112.587890625 226.454101562 40.8671875 314.954101562 40.8671875 c 0
 335.793945312 40.8671875 355.858398438 44.8251953125 374.181640625 52.078125 c 0
 382.364257812 55.318359375 388.158203125 63.3056640625 388.158203125 72.6357421875 c 0
 388.158203125 87.283203125 373.267578125 99.26171875 357.936523438 93.1923828125 c 0
 344.750976562 87.9716796875 330.069335938 85.06640625 314.954101562 85.06640625 c 0
 250.830078125 85.06640625 198.932617188 136.963867188 198.932617188 201.087890625 c 0
 198.932617188 265.317382812 250.978515625 317.80078125 314.954101562 317.80078125 c 0
 330.069335938 317.80078125 344.750976562 314.895507812 357.936523438 309.674804688 c 0
122.102539062 111.918945312 m 1
 122.102539062 295.829101562 l 1
 252.592773438 212.240234375 l 1
 122.102539062 111.918945312 l 1
100.002929688 336.228515625 m 1
 100.002929688 67.0576171875 l 1
 290.990234375 213.887695312 l 1
 100.002929688 336.228515625 l 1
111.049804688 89.490234375 m 1025
EndSplineSet
EndChar

StartChar: uni008F
Encoding: 143 143 16
Width: 512
VWidth: 511
Flags: HW
LayerCount: 2
Fore
SplineSet
375.533203125 262.630859375 m 1026
263.505859375 281.512695312 m 1
 343.303710938 239.9453125 l 2
 361.491210938 240.138671875 379.413085938 240.59765625 397.533203125 240.92578125 c 0
 397.541992188 268.924804688 397.86328125 296.557617188 397.86328125 324.563476562 c 1
 378.594726562 324.05859375 359.450195312 323.123046875 340.063476562 323.123046875 c 0
 314.658203125 309.122070312 289.026367188 295.360351562 263.505859375 281.512695312 c 1
386.532226562 251.77734375 m 1025
393.288085938 46.9267578125 m 1
 152.09375 46.9267578125 l 1
 152.09375 349.909179688 l 1
 393.288085938 349.909179688 l 1
 393.288085938 46.9267578125 l 1
141.043945312 24.8271484375 m 2
 404.337890625 24.8271484375 l 2
 410.436523438 24.8271484375 415.387695312 29.7783203125 415.387695312 35.876953125 c 2
 415.387695312 360.958984375 l 2
 415.387695312 367.057617188 410.436523438 372.008789062 404.337890625 372.008789062 c 2
 141.043945312 372.008789062 l 2
 134.9453125 372.008789062 129.994140625 367.057617188 129.994140625 360.958984375 c 2
 129.994140625 35.876953125 l 2
 129.994140625 29.7783203125 134.9453125 24.8271484375 141.043945312 24.8271484375 c 2
200.954101562 42.0498046875 m 2
 239.80078125 42.0498046875 l 2
 245.899414062 42.0498046875 250.850585938 47.0009765625 250.850585938 53.0986328125 c 2
 250.850585938 91.9453125 l 2
 250.850585938 98.0439453125 245.899414062 102.995117188 239.80078125 102.995117188 c 2
 200.954101562 102.995117188 l 2
 194.85546875 102.995117188 189.904296875 98.0439453125 189.904296875 91.9453125 c 2
 189.904296875 53.0986328125 l 2
 189.904296875 47.0009765625 194.85546875 42.0498046875 200.954101562 42.0498046875 c 2
199.875 127.295898438 m 2
 238.721679688 127.295898438 l 2
 244.8203125 127.295898438 249.771484375 132.247070312 249.771484375 138.345703125 c 2
 249.771484375 177.192382812 l 2
 249.771484375 183.291015625 244.8203125 188.2421875 238.721679688 188.2421875 c 2
 199.875 188.2421875 l 2
 193.776367188 188.2421875 188.825195312 183.291015625 188.825195312 177.192382812 c 2
 188.825195312 138.345703125 l 2
 188.825195312 132.247070312 193.776367188 127.295898438 199.875 127.295898438 c 2
199.875 217.938476562 m 2
 238.721679688 217.938476562 l 2
 244.8203125 217.938476562 249.771484375 222.889648438 249.771484375 228.98828125 c 2
 249.771484375 267.834960938 l 2
 249.771484375 273.93359375 244.8203125 278.884765625 238.721679688 278.884765625 c 2
 199.875 278.884765625 l 2
 193.776367188 278.884765625 188.825195312 273.93359375 188.825195312 267.834960938 c 2
 188.825195312 228.98828125 l 2
 188.825195312 222.889648438 193.776367188 217.938476562 199.875 217.938476562 c 2
198.795898438 304.264648438 m 2
 237.642578125 304.264648438 l 2
 243.741210938 304.264648438 248.692382812 309.215820312 248.692382812 315.314453125 c 2
 248.692382812 354.16015625 l 2
 248.692382812 360.258789062 243.741210938 365.209960938 237.642578125 365.209960938 c 2
 198.795898438 365.209960938 l 2
 192.697265625 365.209960938 187.74609375 360.258789062 187.74609375 354.16015625 c 2
 187.74609375 315.314453125 l 2
 187.74609375 309.215820312 192.697265625 304.264648438 198.795898438 304.264648438 c 2
EndSplineSet
EndChar

StartChar: uni0090
Encoding: 144 144 17
Width: 481
VWidth: 481
Flags: HW
LayerCount: 2
Fore
SplineSet
112.086914062 202.776367188 m 0
 112.086914062 272.99609375 169.001953125 329.91015625 239.220703125 329.91015625 c 0
 309.440429688 329.91015625 366.354492188 272.99609375 366.354492188 202.776367188 c 0
 366.354492188 132.556640625 309.440429688 75.642578125 239.220703125 75.642578125 c 0
 169.001953125 75.642578125 112.086914062 132.556640625 112.086914062 202.776367188 c 0
89.98828125 202.776367188 m 0
 89.98828125 120.365234375 156.810546875 53.54296875 239.220703125 53.54296875 c 0
 321.631835938 53.54296875 388.454101562 120.365234375 388.454101562 202.776367188 c 0
 388.454101562 285.1875 321.631835938 352.009765625 239.220703125 352.009765625 c 0
 156.810546875 352.009765625 89.98828125 285.1875 89.98828125 202.776367188 c 0
218.204101562 224.966796875 m 2
 254.95703125 224.829101562 l 2
 261.055664062 224.805664062 266.013671875 229.73828125 266.021484375 235.836914062 c 2
 266.151367188 337.702148438 l 2
 266.159179688 343.799804688 261.213867188 348.76953125 255.115234375 348.79296875 c 2
 218.362304688 348.930664062 l 2
 212.264648438 348.953125 207.306640625 344.020507812 207.298828125 337.922851562 c 2
 207.168945312 236.057617188 l 2
 207.161132812 229.958984375 212.10546875 224.989257812 218.204101562 224.966796875 c 2
115.05859375 125.310546875 m 2
 138.994140625 97.419921875 l 2
 142.965820312 92.7919921875 149.939453125 92.2685546875 154.557617188 96.251953125 c 2
 231.693359375 162.783203125 l 2
 236.311523438 166.766601562 236.836914062 173.7578125 232.865234375 178.385742188 c 2
 208.928710938 206.275390625 l 2
 204.95703125 210.903320312 197.983398438 211.426757812 193.365234375 207.443359375 c 2
 116.229492188 140.912109375 l 2
 111.611328125 136.9296875 111.086914062 129.938476562 115.05859375 125.310546875 c 2
354.771484375 112.911132812 m 2
 375.514648438 143.250976562 l 2
 378.95703125 148.28515625 377.657226562 155.15625 372.614257812 158.5859375 c 2
 288.401367188 215.858398438 l 2
 283.358398438 219.288085938 276.469726562 217.985351562 273.028320312 212.951171875 c 2
 252.284179688 182.611328125 l 2
 248.842773438 177.577148438 250.141601562 170.705078125 255.184570312 167.275390625 c 2
 339.397460938 110.002929688 l 2
 344.440429688 106.573242188 351.329101562 107.876953125 354.771484375 112.911132812 c 2
EndSplineSet
EndChar

StartChar: uni0091
Encoding: 145 145 18
Width: 512
VWidth: 511
Flags: HW
LayerCount: 2
Fore
SplineSet
265.900390625 265.114257812 m 0
 265.900390625 296.328125 240.611328125 321.633789062 209.379882812 321.633789062 c 0
 178.14453125 321.633789062 152.837890625 296.322265625 152.837890625 265.114257812 c 0
 152.837890625 233.879882812 178.146484375 208.572265625 209.379882812 208.572265625 c 0
 240.609375 208.572265625 265.900390625 233.874023438 265.900390625 265.114257812 c 0
296.264648438 265.114257812 m 0
 296.264648438 217.134765625 257.370117188 178.20703125 209.379882812 178.20703125 c 0
 161.39453125 178.20703125 122.473632812 217.12890625 122.473632812 265.114257812 c 0
 122.473632812 313.081054688 161.396484375 351.998046875 209.379882812 351.998046875 c 0
 257.3671875 351.998046875 296.264648438 313.07421875 296.264648438 265.114257812 c 0
150.151367188 65.5869140625 m 1
 150.151367188 68.6611328125 149.841796875 71.69140625 149.841796875 74.671875 c 0
 149.841796875 130.853515625 184.61328125 169.4921875 232.3125 169.4921875 c 0
 239.075195312 169.4921875 245.845703125 168.725585938 252.557617188 167.236328125 c 1
 219.024414062 144.3359375 192.749023438 107.725585938 181.107421875 65.5869140625 c 1
 150.151367188 65.5869140625 l 1
232.3125 199.334960938 m 0
 157.512695312 199.334960938 109.23046875 130.067382812 122.092773438 48.33203125 c 2
 124.073242188 35.744140625 l 1
 205.028320312 35.744140625 l 1
 207.474609375 47.65234375 l 2
 217.771484375 97.7763671875 253.205078125 139.779296875 293.727539062 155.5 c 2
 323.662109375 167.112304688 l 1
 295.48046875 182.518554688 l 2
 275.971679688 193.18359375 254.521484375 199.334960938 232.3125 199.334960938 c 0
295.458007812 216.221679688 m 0
 295.458007812 253.260742188 325.483398438 283.287109375 362.522460938 283.287109375 c 0
 399.561523438 283.287109375 429.587890625 253.260742188 429.587890625 216.221679688 c 0
 429.587890625 179.182617188 399.561523438 149.157226562 362.522460938 149.157226562 c 0
 325.483398438 149.157226562 295.458007812 179.182617188 295.458007812 216.221679688 c 0
426.124023438 43.2353515625 m 1
 182.521484375 43.2353515625 l 1
 194.677734375 120.487304688 259.065429688 183.11328125 326.334960938 183.11328125 c 0
 393.604492188 183.11328125 438.28125 120.487304688 426.124023438 43.2353515625 c 1
EndSplineSet
EndChar

StartChar: uni0092
Encoding: 146 146 19
Width: 512
VWidth: 511
Flags: HW
LayerCount: 2
Fore
SplineSet
235.915039062 372 m 5
 367.4453125 248.475585938 l 5
 391.504882812 226.020507812 l 5
 358.623046875 226.020507812 l 5
 110 227.19140625 l 5
 110.801757812 273.532226562 l 5
 303.751953125 270.663085938 l 5
 218.271484375 353.551757812 l 5
 235.915039062 372 l 5
278.12109375 64.3828125 m 5
 146.591796875 187.905273438 l 5
 122.53125 210.36328125 l 5
 155.4140625 210.36328125 l 5
 404.036132812 209.19140625 l 5
 403.234375 162.8515625 l 5
 210.284179688 165.721679688 l 5
 295.765625 82.8291015625 l 5
 278.12109375 64.3828125 l 5
EndSplineSet
EndChar

StartChar: uni0093
Encoding: 147 147 20
Width: 512
VWidth: 511
Flags: HW
LayerCount: 2
Fore
SplineSet
243.895507812 293.6796875 m 5
 284.813476562 292.900390625 321.047851562 277.209960938 352.516601562 255.288085938 c 5
 333.7890625 240.303710938 l 6
 307.375 257.165039062 277.413085938 268.584960938 243.895507812 269.333984375 c 6
 243.895507812 293.6796875 l 5
243.895507812 343.775390625 m 5
 300.608398438 342.918945312 352.4921875 322.634765625 394.185546875 289.934570312 c 5
 375.926757812 274.483398438 l 6
 338.965820312 302.1640625 293.44140625 319.07421875 243.895507812 319.8984375 c 6
 243.895507812 343.775390625 l 5
243.895507812 392 m 5
 315.618164062 391.09375 380.532226562 363.895507812 431.641601562 320.834960938 c 5
 413.849609375 305.852539062 l 6
 367.1875 344.0859375 308.625976562 367.70703125 243.895507812 368.590820312 c 5
 243.895507812 392 l 5
252.030273438 246.408203125 m 4
 343.793945312 246.408203125 376.5703125 167.751953125 376.5703125 167.751953125 c 5
 376.5703125 156.983398438 l 5
 376.5703125 156.983398438 345.817382812 71.7724609375 251.5625 71.7724609375 c 4
 149.788085938 71.7724609375 120 157.919921875 120 157.919921875 c 5
 120 167.751953125 l 5
 120 167.751953125 153.181640625 246.408203125 252.030273438 246.408203125 c 4
243.134765625 233.298828125 m 4
 206.547851562 229.583984375 178.055664062 198.764648438 178.055664062 161.197265625 c 4
 178.055664062 121.125976562 210.5546875 88.626953125 250.625976562 88.626953125 c 4
 290.698242188 88.626953125 323.196289062 121.125976562 323.196289062 161.197265625 c 4
 323.196289062 201.268554688 290.698242188 233.298828125 250.625976562 233.298828125 c 4
 248.122070312 233.298828125 245.57421875 233.546875 243.134765625 233.298828125 c 4
213.302734375 159.090820312 m 4
 213.302734375 179.63671875 229.958007812 196.291992188 250.502929688 196.291992188 c 4
 271.048828125 196.291992188 287.704101562 179.63671875 287.704101562 159.090820312 c 4
 287.704101562 138.545898438 271.048828125 121.890625 250.502929688 121.890625 c 4
 229.958007812 121.890625 213.302734375 138.545898438 213.302734375 159.090820312 c 4
EndSplineSet
EndChar

StartChar: uni0094
Encoding: 148 148 21
Width: 512
VWidth: 511
Flags: HW
LayerCount: 2
Fore
SplineSet
162.108398438 69.1689453125 m 5
 162.108398438 359.893554688 l 5
 302.608398438 359.893554688 l 5
 373.477539062 287.658203125 l 5
 373.477539062 69.1689453125 l 5
 162.108398438 69.1689453125 l 5
140.008789062 370.943359375 m 6
 140.008789062 58.1201171875 l 6
 140.008789062 52.021484375 144.959960938 47.0703125 151.05859375 47.0703125 c 6
 384.52734375 47.0703125 l 6
 390.625976562 47.0703125 395.577148438 52.021484375 395.577148438 58.1201171875 c 6
 395.577148438 292.170898438 l 6
 395.577148438 295.181640625 394.370117188 297.913085938 392.413085938 299.907226562 c 6
 315.129882812 378.6796875 l 6
 313.125 380.723632812 310.331054688 381.993164062 307.244140625 381.993164062 c 6
 151.05859375 381.993164062 l 6
 144.959960938 381.993164062 140.008789062 377.041992188 140.008789062 370.943359375 c 6
294.553710938 294.19921875 m 5
 294.553710938 343.578125 l 5
 272.454101562 343.578125 l 5
 272.454101562 319.751953125 272.454101562 295.92578125 272.454101562 272.099609375 c 5
 298.797851562 272.099609375 325.141601562 272.099609375 351.485351562 272.099609375 c 5
 351.485351562 294.19921875 l 5
 294.553710938 294.19921875 l 5
EndSplineSet
EndChar

StartChar: uni0089
Encoding: 137 137 22
Width: 512
VWidth: 511
Flags: HW
LayerCount: 2
Fore
SplineSet
365.155273438 264.3515625 m 0
 357.520507812 264.3515625 351.518554688 256.2578125 355.16796875 248.572265625 c 0
 363.057617188 231.958984375 367.486328125 213.381835938 367.486328125 193.801757812 c 0
 367.486328125 123.262695312 310.30859375 66.1044921875 239.7890625 66.1044921875 c 0
 169.26953125 66.1044921875 112.091796875 123.262695312 112.091796875 193.801757812 c 0
 112.091796875 262.078125 165.655273438 317.82421875 233.053710938 321.3203125 c 0
 238.8828125 321.623046875 243.522460938 326.451171875 243.522460938 332.354492188 c 0
 243.522460938 338.453125 238.571289062 343.404296875 231.892578125 343.389648438 c 0
 152.838867188 339.2890625 89.9921875 273.876953125 89.9921875 193.801757812 c 0
 89.9921875 111.069335938 157.080078125 44.0048828125 239.7890625 44.0048828125 c 0
 322.498046875 44.0048828125 389.5859375 111.069335938 389.5859375 193.801757812 c 0
 389.5859375 216.780273438 384.389648438 238.560546875 375.143554688 258.032226562 c 0
 373.369140625 261.766601562 369.5625 264.3515625 365.155273438 264.3515625 c 0
256.48828125 326.043945312 m 0
 256.48828125 289.626953125 286.0234375 260.091796875 322.440429688 260.091796875 c 0
 358.858398438 260.091796875 388.393554688 289.626953125 388.393554688 326.043945312 c 0
 388.393554688 362.461914062 358.858398438 391.997070312 322.440429688 391.997070312 c 0
 286.0234375 391.997070312 256.48828125 362.461914062 256.48828125 326.043945312 c 0
267.537109375 326.043945312 m 1024
243.633789062 211.385742188 m 1
 279.329101562 335.384765625 l 1
 258.087890625 341.499023438 l 1
 240.07421875 278.923828125 222.060546875 216.348632812 204.046875 153.7734375 c 1
 256.372070312 193.315429688 308.645507812 232.818359375 360.991210938 272.376953125 c 1
 347.668945312 290.005859375 l 1
 243.633789062 211.385742188 l 1
EndSplineSet
EndChar
